STARTFONT 2.1
FONT --Tile12Rph-Regular-R-Normal--26-260-72-72-P-156-FONTSPECIFIC-0
SIZE 26 72 72
FONTBOUNDINGBOX 27 26 0 -5
METRICSSET 2
STARTPROPERTIES 19
FONT_ASCENT 21
FONT_DESCENT 5
PIXEL_SIZE 26
RESOLUTION_X 72
RESOLUTION_Y 72
POINT_SIZE 260
FACE_NAME "Modern 12-point H"
FOUNDRY ""
FAMILY_NAME "Tile12Rph"
WEIGHT_NAME "Regular"
RELATIVE_WEIGHT 50
SLANT "R"
SPACING "P"
SETWIDTH_NAME "Normal"
RELATIVE_SETWIDTH 50
ADD_STYLE_NAME ""
AVERAGE_WIDTH 156
CHARSET_REGISTRY "FONTSPECIFIC"
CHARSET_ENCODING "0"
ENDPROPERTIES
CHARS 193
STARTCHAR char08
ENCODING 8
SWIDTH 577 0
DWIDTH 15 0
BBX 11 13 2 1
VVECTOR 8 21
SWIDTH1 0 -1000
DWIDTH1 0 -26
BITMAP 
8000
8000
8000
8000
9000
B000
FFE0
B000
9000
8000
8000
8000
8000
ENDCHAR
STARTCHAR char09
ENCODING 9
SWIDTH 577 0
DWIDTH 15 0
BBX 11 13 2 1
VVECTOR 8 21
SWIDTH1 0 -1000
DWIDTH1 0 -26
BITMAP 
0020
0020
0020
0020
0120
01A0
FFE0
01A0
0120
0020
0020
0020
0020
ENDCHAR
STARTCHAR char0C
ENCODING 12
SWIDTH 885 0
DWIDTH 23 0
BBX 17 17 3 0
VVECTOR 12 21
SWIDTH1 0 -1000
DWIDTH1 0 -26
BITMAP 
FFFF80
800080
800080
800080
800080
800080
800080
800080
800080
800080
800080
800080
808080
81C080
E3E380
07F000
0FF800
ENDCHAR
STARTCHAR char0D
ENCODING 13
SWIDTH 885 0
DWIDTH 23 0
BBX 17 18 3 -1
VVECTOR 12 21
SWIDTH1 0 -1000
DWIDTH1 0 -26
BITMAP 
03FE00
000100
000080
000080
000080
000080
000080
000080
000080
000080
000080
100080
300080
700100
FFFE00
700000
300000
100000
ENDCHAR
STARTCHAR char1C
ENCODING 28
SWIDTH 577 0
DWIDTH 15 0
BBX 11 5 2 5
VVECTOR 8 21
SWIDTH1 0 -1000
DWIDTH1 0 -26
BITMAP 
3000
7000
FFE0
7000
3000
ENDCHAR
STARTCHAR char1D
ENCODING 29
SWIDTH 577 0
DWIDTH 15 0
BBX 11 5 2 5
VVECTOR 8 21
SWIDTH1 0 -1000
DWIDTH1 0 -26
BITMAP 
0180
01C0
FFE0
01C0
0180
ENDCHAR
STARTCHAR char1E
ENCODING 30
SWIDTH 577 0
DWIDTH 15 0
BBX 7 12 4 3
VVECTOR 8 21
SWIDTH1 0 -1000
DWIDTH1 0 -26
BITMAP 
10
38
7C
FE
10
10
10
10
10
10
10
10
ENDCHAR
STARTCHAR char1F
ENCODING 31
SWIDTH 577 0
DWIDTH 15 0
BBX 7 12 4 3
VVECTOR 8 21
SWIDTH1 0 -1000
DWIDTH1 0 -26
BITMAP 
10
10
10
10
10
10
10
10
FE
7C
38
10
ENDCHAR
STARTCHAR char20
ENCODING 32
SWIDTH 385 0
DWIDTH 10 0
BBX 0 0 0 -5
VVECTOR 0 -5
SWIDTH1 0 0
DWIDTH1 0 0
BITMAP 
ENDCHAR
STARTCHAR char21
ENCODING 33
SWIDTH 346 0
DWIDTH 9 0
BBX 1 17 4 0
VVECTOR 5 21
SWIDTH1 0 -1000
DWIDTH1 0 -26
BITMAP 
80
80
80
80
80
80
80
80
80
80
80
80
00
00
00
80
80
ENDCHAR
STARTCHAR char22
ENCODING 34
SWIDTH 500 0
DWIDTH 13 0
BBX 7 5 3 12
VVECTOR 7 21
SWIDTH1 0 -1000
DWIDTH1 0 -26
BITMAP 
C6
C6
C6
C6
C6
ENDCHAR
STARTCHAR char23
ENCODING 35
SWIDTH 885 0
DWIDTH 23 0
BBX 18 17 2 0
VVECTOR 11 21
SWIDTH1 0 -1000
DWIDTH1 0 -26
BITMAP 
020400
020400
020400
020400
020400
7FFFC0
040800
040800
040800
040800
040800
FFFF80
081000
081000
081000
081000
081000
ENDCHAR
STARTCHAR char24
ENCODING 36
SWIDTH 577 0
DWIDTH 15 0
BBX 9 20 3 -1
VVECTOR 8 21
SWIDTH1 0 -1000
DWIDTH1 0 -26
BITMAP 
0800
0800
0800
3E00
4100
8080
8080
8000
6000
1800
0600
0100
0080
8080
8080
4100
3E00
0800
0800
0800
ENDCHAR
STARTCHAR char25
ENCODING 37
SWIDTH 885 0
DWIDTH 23 0
BBX 17 17 3 0
VVECTOR 12 21
SWIDTH1 0 -1000
DWIDTH1 0 -26
BITMAP 
7C0000
820100
820200
820400
820800
7C1000
002000
004000
008000
010000
020000
041F00
082080
102080
202080
402080
001F00
ENDCHAR
STARTCHAR char26
ENCODING 38
SWIDTH 654 0
DWIDTH 17 0
BBX 12 17 3 0
VVECTOR 9 21
SWIDTH1 0 -1000
DWIDTH1 0 -26
BITMAP 
1C00
2200
4100
4100
4100
2200
1C00
2400
4200
8200
8120
8140
8080
8080
8140
4220
3C10
ENDCHAR
STARTCHAR char27
ENCODING 39
SWIDTH 308 0
DWIDTH 8 0
BBX 2 5 3 12
VVECTOR 4 21
SWIDTH1 0 -1000
DWIDTH1 0 -26
BITMAP 
C0
C0
C0
C0
C0
ENDCHAR
STARTCHAR char28
ENCODING 40
SWIDTH 346 0
DWIDTH 9 0
BBX 6 24 2 -4
VVECTOR 5 21
SWIDTH1 0 -1000
DWIDTH1 0 -26
BITMAP 
04
08
10
20
20
40
40
40
80
80
80
80
80
80
80
80
40
40
40
20
20
10
08
04
ENDCHAR
STARTCHAR char29
ENCODING 41
SWIDTH 346 0
DWIDTH 9 0
BBX 6 24 1 -4
VVECTOR 4 21
SWIDTH1 0 -1000
DWIDTH1 0 -26
BITMAP 
80
40
20
10
10
08
08
08
04
04
04
04
04
04
04
04
08
08
08
10
10
20
40
80
ENDCHAR
STARTCHAR char2A
ENCODING 42
SWIDTH 577 0
DWIDTH 15 0
BBX 9 7 3 7
VVECTOR 8 21
SWIDTH1 0 -1000
DWIDTH1 0 -26
BITMAP 
4100
2200
1400
EB80
1400
2200
4100
ENDCHAR
STARTCHAR char2B
ENCODING 43
SWIDTH 885 0
DWIDTH 23 0
BBX 17 15 3 1
VVECTOR 12 21
SWIDTH1 0 -1000
DWIDTH1 0 -26
BITMAP 
008000
008000
008000
008000
008000
008000
008000
FFFF80
008000
008000
008000
008000
008000
008000
008000
ENDCHAR
STARTCHAR char2C
ENCODING 44
SWIDTH 308 0
DWIDTH 8 0
BBX 5 4 1 -2
VVECTOR 4 21
SWIDTH1 0 -1000
DWIDTH1 0 -26
BITMAP 
18
30
60
C0
ENDCHAR
STARTCHAR char2D
ENCODING 45
SWIDTH 885 0
DWIDTH 23 0
BBX 17 1 3 8
VVECTOR 12 21
SWIDTH1 0 -1000
DWIDTH1 0 -26
BITMAP 
FFFF80
ENDCHAR
STARTCHAR char2E
ENCODING 46
SWIDTH 308 0
DWIDTH 8 0
BBX 2 2 3 0
VVECTOR 4 21
SWIDTH1 0 -1000
DWIDTH1 0 -26
BITMAP 
C0
C0
ENDCHAR
STARTCHAR char2F
ENCODING 47
SWIDTH 423 0
DWIDTH 11 0
BBX 9 17 1 0
VVECTOR 6 21
SWIDTH1 0 -1000
DWIDTH1 0 -26
BITMAP 
0080
0080
0100
0100
0200
0200
0400
0400
0800
1000
1000
2000
2000
4000
4000
8000
8000
ENDCHAR
STARTCHAR char30
ENCODING 48
SWIDTH 577 0
DWIDTH 15 0
BBX 9 17 3 0
VVECTOR 8 21
SWIDTH1 0 -1000
DWIDTH1 0 -26
BITMAP 
7F00
8080
8080
8080
8080
8080
8080
8080
8080
8080
8080
8080
8080
8080
8080
8080
7F00
ENDCHAR
STARTCHAR char31
ENCODING 49
SWIDTH 577 0
DWIDTH 15 0
BBX 5 17 4 0
VVECTOR 7 21
SWIDTH1 0 -1000
DWIDTH1 0 -26
BITMAP 
08
18
F8
08
08
08
08
08
08
08
08
08
08
08
08
08
08
ENDCHAR
STARTCHAR char32
ENCODING 50
SWIDTH 577 0
DWIDTH 15 0
BBX 10 17 2 0
VVECTOR 7 21
SWIDTH1 0 -1000
DWIDTH1 0 -26
BITMAP 
3F00
4080
8040
8040
0040
0040
0080
0100
0200
0400
0800
1000
2000
4000
8000
8000
FFC0
ENDCHAR
STARTCHAR char33
ENCODING 51
SWIDTH 577 0
DWIDTH 15 0
BBX 10 17 2 0
VVECTOR 7 21
SWIDTH1 0 -1000
DWIDTH1 0 -26
BITMAP 
3F00
4080
8040
8040
0040
0040
0080
0F00
0080
0040
0040
0040
0040
8040
8040
4080
3F00
ENDCHAR
STARTCHAR char34
ENCODING 52
SWIDTH 577 0
DWIDTH 15 0
BBX 11 17 2 0
VVECTOR 8 21
SWIDTH1 0 -1000
DWIDTH1 0 -26
BITMAP 
0180
0280
0480
0480
0880
1080
1080
2080
4080
4080
8080
FFE0
0080
0080
0080
0080
0080
ENDCHAR
STARTCHAR char35
ENCODING 53
SWIDTH 577 0
DWIDTH 15 0
BBX 10 17 2 0
VVECTOR 7 21
SWIDTH1 0 -1000
DWIDTH1 0 -26
BITMAP 
7F80
4000
4000
4000
4000
4000
7F00
4080
0040
0040
0040
0040
0040
8040
8040
4080
3F00
ENDCHAR
STARTCHAR char36
ENCODING 54
SWIDTH 577 0
DWIDTH 15 0
BBX 10 17 3 0
VVECTOR 8 21
SWIDTH1 0 -1000
DWIDTH1 0 -26
BITMAP 
3F00
4080
8000
8000
8000
8000
9F00
A080
C040
8040
8040
8040
8040
8040
8040
4080
3F00
ENDCHAR
STARTCHAR char37
ENCODING 55
SWIDTH 577 0
DWIDTH 15 0
BBX 10 17 2 0
VVECTOR 7 21
SWIDTH1 0 -1000
DWIDTH1 0 -26
BITMAP 
FFC0
0040
0040
0080
0080
0100
0100
0200
0200
0200
0400
0400
0400
0800
0800
0800
0800
ENDCHAR
STARTCHAR char38
ENCODING 56
SWIDTH 577 0
DWIDTH 15 0
BBX 10 17 2 0
VVECTOR 7 21
SWIDTH1 0 -1000
DWIDTH1 0 -26
BITMAP 
3F00
4080
8040
8040
8040
8040
4080
3F00
4080
8040
8040
8040
8040
8040
8040
4080
3F00
ENDCHAR
STARTCHAR char39
ENCODING 57
SWIDTH 577 0
DWIDTH 15 0
BBX 10 17 2 0
VVECTOR 7 21
SWIDTH1 0 -1000
DWIDTH1 0 -26
BITMAP 
3F00
4080
8040
8040
8040
8040
8040
8040
80C0
4140
3E40
0040
0040
0040
0040
4080
3F00
ENDCHAR
STARTCHAR char3A
ENCODING 58
SWIDTH 308 0
DWIDTH 8 0
BBX 2 10 3 0
VVECTOR 4 21
SWIDTH1 0 -1000
DWIDTH1 0 -26
BITMAP 
C0
C0
00
00
00
00
00
00
C0
C0
ENDCHAR
STARTCHAR char3B
ENCODING 59
SWIDTH 308 0
DWIDTH 8 0
BBX 5 12 0 -2
VVECTOR 3 21
SWIDTH1 0 -1000
DWIDTH1 0 -26
BITMAP 
18
18
00
00
00
00
00
00
18
30
60
C0
ENDCHAR
STARTCHAR char3C
ENCODING 60
SWIDTH 577 0
DWIDTH 15 0
BBX 9 17 3 0
VVECTOR 8 21
SWIDTH1 0 -1000
DWIDTH1 0 -26
BITMAP 
0080
0100
0200
0400
0800
1000
2000
4000
8000
4000
2000
1000
0800
0400
0200
0100
0080
ENDCHAR
STARTCHAR char3D
ENCODING 61
SWIDTH 885 0
DWIDTH 23 0
BBX 17 5 3 6
VVECTOR 12 21
SWIDTH1 0 -1000
DWIDTH1 0 -26
BITMAP 
FFFF80
000000
000000
000000
FFFF80
ENDCHAR
STARTCHAR char3E
ENCODING 62
SWIDTH 577 0
DWIDTH 15 0
BBX 9 17 3 0
VVECTOR 8 21
SWIDTH1 0 -1000
DWIDTH1 0 -26
BITMAP 
8000
4000
2000
1000
0800
0400
0200
0100
0080
0100
0200
0400
0800
1000
2000
4000
8000
ENDCHAR
STARTCHAR char3F
ENCODING 63
SWIDTH 577 0
DWIDTH 15 0
BBX 9 17 3 0
VVECTOR 8 21
SWIDTH1 0 -1000
DWIDTH1 0 -26
BITMAP 
3E00
4100
8080
8080
0080
0080
0080
0100
0200
0400
0800
0800
0800
0000
0000
0800
0800
ENDCHAR
STARTCHAR char40
ENCODING 64
SWIDTH 885 0
DWIDTH 23 0
BBX 17 15 3 1
VVECTOR 12 21
SWIDTH1 0 -1000
DWIDTH1 0 -26
BITMAP 
3FFE00
400100
800080
800080
83F080
841080
841080
841080
843080
845080
838F00
800000
800000
400000
3FE000
ENDCHAR
STARTCHAR char41
ENCODING 65
SWIDTH 692 0
DWIDTH 18 0
BBX 16 17 1 0
VVECTOR 9 21
SWIDTH1 0 -1000
DWIDTH1 0 -26
BITMAP 
0180
0240
0240
0420
0420
0810
0810
1008
1008
1008
2FF4
2004
4002
4002
8001
8001
8001
ENDCHAR
STARTCHAR char42
ENCODING 66
SWIDTH 654 0
DWIDTH 17 0
BBX 13 17 2 0
VVECTOR 9 21
SWIDTH1 0 -1000
DWIDTH1 0 -26
BITMAP 
FFC0
8020
8010
8010
8010
8010
8020
FFC0
8020
8010
8008
8008
8008
8008
8010
8020
FFC0
ENDCHAR
STARTCHAR char43
ENCODING 67
SWIDTH 731 0
DWIDTH 19 0
BBX 15 17 2 0
VVECTOR 10 21
SWIDTH1 0 -1000
DWIDTH1 0 -26
BITMAP 
1FF0
2008
4004
8002
8002
8000
8000
8000
8000
8000
8000
8000
8002
8002
4004
2008
1FF0
ENDCHAR
STARTCHAR char44
ENCODING 68
SWIDTH 692 0
DWIDTH 18 0
BBX 14 17 2 0
VVECTOR 9 21
SWIDTH1 0 -1000
DWIDTH1 0 -26
BITMAP 
FFE0
8010
8008
8004
8004
8004
8004
8004
8004
8004
8004
8004
8004
8004
8008
8010
FFE0
ENDCHAR
STARTCHAR char45
ENCODING 69
SWIDTH 615 0
DWIDTH 16 0
BBX 12 17 2 0
VVECTOR 8 21
SWIDTH1 0 -1000
DWIDTH1 0 -26
BITMAP 
FFF0
8000
8000
8000
8000
8000
8000
FFE0
8000
8000
8000
8000
8000
8000
8000
8000
FFF0
ENDCHAR
STARTCHAR char46
ENCODING 70
SWIDTH 615 0
DWIDTH 16 0
BBX 12 17 2 0
VVECTOR 8 21
SWIDTH1 0 -1000
DWIDTH1 0 -26
BITMAP 
FFF0
8000
8000
8000
8000
8000
8000
FFC0
8000
8000
8000
8000
8000
8000
8000
8000
8000
ENDCHAR
STARTCHAR char47
ENCODING 71
SWIDTH 692 0
DWIDTH 18 0
BBX 14 17 2 0
VVECTOR 9 21
SWIDTH1 0 -1000
DWIDTH1 0 -26
BITMAP 
1FE0
2010
4008
8004
8004
8000
8000
8000
8000
80FC
8004
8004
8004
800C
4014
2024
1FC4
ENDCHAR
STARTCHAR char48
ENCODING 72
SWIDTH 769 0
DWIDTH 20 0
BBX 14 17 3 0
VVECTOR 10 21
SWIDTH1 0 -1000
DWIDTH1 0 -26
BITMAP 
8004
8004
8004
8004
8004
8004
8004
FFFC
8004
8004
8004
8004
8004
8004
8004
8004
8004
ENDCHAR
STARTCHAR char49
ENCODING 73
SWIDTH 346 0
DWIDTH 9 0
BBX 1 17 4 0
VVECTOR 5 21
SWIDTH1 0 -1000
DWIDTH1 0 -26
BITMAP 
80
80
80
80
80
80
80
80
80
80
80
80
80
80
80
80
80
ENDCHAR
STARTCHAR char4A
ENCODING 74
SWIDTH 500 0
DWIDTH 13 0
BBX 9 17 2 0
VVECTOR 7 21
SWIDTH1 0 -1000
DWIDTH1 0 -26
BITMAP 
0080
0080
0080
0080
0080
0080
0080
0080
0080
0080
0080
0080
0080
8080
8080
4100
3E00
ENDCHAR
STARTCHAR char4B
ENCODING 75
SWIDTH 692 0
DWIDTH 18 0
BBX 14 17 2 0
VVECTOR 9 21
SWIDTH1 0 -1000
DWIDTH1 0 -26
BITMAP 
8004
8008
8010
8020
8040
8080
8100
8200
8400
8A00
9100
A080
C040
8020
8010
8008
8004
ENDCHAR
STARTCHAR char4C
ENCODING 76
SWIDTH 654 0
DWIDTH 17 0
BBX 12 17 3 0
VVECTOR 9 21
SWIDTH1 0 -1000
DWIDTH1 0 -26
BITMAP 
8000
8000
8000
8000
8000
8000
8000
8000
8000
8000
8000
8000
8000
8000
8000
8000
FFF0
ENDCHAR
STARTCHAR char4D
ENCODING 77
SWIDTH 1000 0
DWIDTH 26 0
BBX 22 17 2 0
VVECTOR 13 21
SWIDTH1 0 -1000
DWIDTH1 0 -26
BITMAP 
800004
C0000C
A00014
900024
880044
840084
820104
810204
808404
804804
803004
800004
800004
800004
800004
800004
800004
ENDCHAR
STARTCHAR char4E
ENCODING 78
SWIDTH 731 0
DWIDTH 19 0
BBX 15 17 2 0
VVECTOR 10 21
SWIDTH1 0 -1000
DWIDTH1 0 -26
BITMAP 
8002
C002
A002
9002
8802
8402
8402
8202
8102
8082
8042
8042
8022
8012
800A
8006
8002
ENDCHAR
STARTCHAR char4F
ENCODING 79
SWIDTH 769 0
DWIDTH 20 0
BBX 16 17 2 0
VVECTOR 10 21
SWIDTH1 0 -1000
DWIDTH1 0 -26
BITMAP 
1FF8
2004
4002
8001
8001
8001
8001
8001
8001
8001
8001
8001
8001
8001
4002
2004
1FF8
ENDCHAR
STARTCHAR char50
ENCODING 80
SWIDTH 615 0
DWIDTH 16 0
BBX 12 17 2 0
VVECTOR 8 21
SWIDTH1 0 -1000
DWIDTH1 0 -26
BITMAP 
FFC0
8020
8010
8010
8010
8010
8010
8020
FFC0
8000
8000
8000
8000
8000
8000
8000
8000
ENDCHAR
STARTCHAR char51
ENCODING 81
SWIDTH 769 0
DWIDTH 20 0
BBX 16 19 2 -2
VVECTOR 10 21
SWIDTH1 0 -1000
DWIDTH1 0 -26
BITMAP 
1FF8
2004
4002
8001
8001
8001
8001
8001
8001
8001
8001
8001
8001
8041
4022
2014
1FF8
0004
0002
ENDCHAR
STARTCHAR char52
ENCODING 82
SWIDTH 692 0
DWIDTH 18 0
BBX 13 17 2 0
VVECTOR 9 21
SWIDTH1 0 -1000
DWIDTH1 0 -26
BITMAP 
FFE0
8010
8008
8008
8008
8008
8008
8010
FFE0
8010
8008
8008
8008
8008
8008
8008
8008
ENDCHAR
STARTCHAR char53
ENCODING 83
SWIDTH 538 0
DWIDTH 14 0
BBX 10 17 2 0
VVECTOR 7 21
SWIDTH1 0 -1000
DWIDTH1 0 -26
BITMAP 
3F00
4080
8040
8040
8000
4000
2000
1800
0600
0100
0080
0040
0040
8040
8040
4080
3F00
ENDCHAR
STARTCHAR char54
ENCODING 84
SWIDTH 615 0
DWIDTH 16 0
BBX 13 17 1 0
VVECTOR 8 21
SWIDTH1 0 -1000
DWIDTH1 0 -26
BITMAP 
FFF8
0200
0200
0200
0200
0200
0200
0200
0200
0200
0200
0200
0200
0200
0200
0200
0200
ENDCHAR
STARTCHAR char55
ENCODING 85
SWIDTH 692 0
DWIDTH 18 0
BBX 14 17 2 0
VVECTOR 9 21
SWIDTH1 0 -1000
DWIDTH1 0 -26
BITMAP 
8004
8004
8004
8004
8004
8004
8004
8004
8004
8004
8004
8004
8004
8004
4008
2010
1FE0
ENDCHAR
STARTCHAR char56
ENCODING 86
SWIDTH 615 0
DWIDTH 16 0
BBX 13 17 1 0
VVECTOR 8 21
SWIDTH1 0 -1000
DWIDTH1 0 -26
BITMAP 
8008
8008
8008
4010
4010
2020
2020
2020
1040
1040
0880
0880
0880
0500
0500
0200
0200
ENDCHAR
STARTCHAR char57
ENCODING 87
SWIDTH 923 0
DWIDTH 24 0
BBX 21 17 2 0
VVECTOR 13 21
SWIDTH1 0 -1000
DWIDTH1 0 -26
BITMAP 
800008
800008
802008
402010
402010
405010
205020
205020
208820
108840
108840
110440
090480
0A0280
0A0280
040100
040100
ENDCHAR
STARTCHAR char58
ENCODING 88
SWIDTH 692 0
DWIDTH 18 0
BBX 15 17 1 0
VVECTOR 9 21
SWIDTH1 0 -1000
DWIDTH1 0 -26
BITMAP 
8002
4004
2008
1010
1010
0820
0440
0280
0100
0280
0440
0820
1010
1010
2008
4004
8002
ENDCHAR
STARTCHAR char59
ENCODING 89
SWIDTH 692 0
DWIDTH 18 0
BBX 15 17 1 0
VVECTOR 9 21
SWIDTH1 0 -1000
DWIDTH1 0 -26
BITMAP 
8002
4004
2008
1010
0820
0440
0280
0100
0100
0100
0100
0100
0100
0100
0100
0100
0100
ENDCHAR
STARTCHAR char5A
ENCODING 90
SWIDTH 615 0
DWIDTH 16 0
BBX 12 17 2 0
VVECTOR 8 21
SWIDTH1 0 -1000
DWIDTH1 0 -26
BITMAP 
FFF0
0010
0020
0040
0040
0080
0100
0200
0200
0400
0800
1000
1000
2000
4000
8000
FFF0
ENDCHAR
STARTCHAR char5B
ENCODING 91
SWIDTH 385 0
DWIDTH 10 0
BBX 6 24 2 -4
VVECTOR 5 21
SWIDTH1 0 -1000
DWIDTH1 0 -26
BITMAP 
FC
80
80
80
80
80
80
80
80
80
80
80
80
80
80
80
80
80
80
80
80
80
80
FC
ENDCHAR
STARTCHAR char5C
ENCODING 92
SWIDTH 423 0
DWIDTH 11 0
BBX 9 17 1 0
VVECTOR 6 21
SWIDTH1 0 -1000
DWIDTH1 0 -26
BITMAP 
8000
8000
4000
4000
2000
2000
1000
1000
0800
0400
0400
0200
0200
0100
0100
0080
0080
ENDCHAR
STARTCHAR char5D
ENCODING 93
SWIDTH 385 0
DWIDTH 10 0
BBX 6 24 2 -4
VVECTOR 5 21
SWIDTH1 0 -1000
DWIDTH1 0 -26
BITMAP 
FC
04
04
04
04
04
04
04
04
04
04
04
04
04
04
04
04
04
04
04
04
04
04
FC
ENDCHAR
STARTCHAR char5E
ENCODING 94
SWIDTH 692 0
DWIDTH 18 0
BBX 6 3 6 18
VVECTOR 9 21
SWIDTH1 0 -1000
DWIDTH1 0 -26
BITMAP 
30
48
84
ENDCHAR
STARTCHAR char5F
ENCODING 95
SWIDTH 500 0
DWIDTH 13 0
BBX 13 1 0 -5
VVECTOR 7 21
SWIDTH1 0 -1000
DWIDTH1 0 -26
BITMAP 
FFF8
ENDCHAR
STARTCHAR char60
ENCODING 96
SWIDTH 692 0
DWIDTH 18 0
BBX 4 3 6 18
VVECTOR 8 21
SWIDTH1 0 -1000
DWIDTH1 0 -26
BITMAP 
C0
60
10
ENDCHAR
STARTCHAR char61
ENCODING 97
SWIDTH 500 0
DWIDTH 13 0
BBX 9 12 2 0
VVECTOR 7 21
SWIDTH1 0 -1000
DWIDTH1 0 -26
BITMAP 
3E00
4100
0080
0080
0080
3F80
4080
8080
8080
8180
4280
3C80
ENDCHAR
STARTCHAR char62
ENCODING 98
SWIDTH 500 0
DWIDTH 13 0
BBX 9 17 2 0
VVECTOR 7 21
SWIDTH1 0 -1000
DWIDTH1 0 -26
BITMAP 
8000
8000
8000
8000
8000
9E00
A100
C080
8080
8080
8080
8080
8080
8080
C080
A100
9E00
ENDCHAR
STARTCHAR char63
ENCODING 99
SWIDTH 500 0
DWIDTH 13 0
BBX 9 12 2 0
VVECTOR 7 21
SWIDTH1 0 -1000
DWIDTH1 0 -26
BITMAP 
3E00
4100
8080
8080
8000
8000
8000
8000
8080
8080
4100
3E00
ENDCHAR
STARTCHAR char64
ENCODING 100
SWIDTH 500 0
DWIDTH 13 0
BBX 9 17 2 0
VVECTOR 7 21
SWIDTH1 0 -1000
DWIDTH1 0 -26
BITMAP 
0080
0080
0080
0080
0080
3C80
4280
8180
8080
8080
8080
8080
8080
8080
8180
4280
3C80
ENDCHAR
STARTCHAR char65
ENCODING 101
SWIDTH 500 0
DWIDTH 13 0
BBX 9 12 2 0
VVECTOR 7 21
SWIDTH1 0 -1000
DWIDTH1 0 -26
BITMAP 
3E00
4100
8080
8080
8080
FF80
8000
8000
8000
8000
4100
3E00
ENDCHAR
STARTCHAR char66
ENCODING 102
SWIDTH 423 0
DWIDTH 11 0
BBX 7 17 2 0
VVECTOR 6 21
SWIDTH1 0 -1000
DWIDTH1 0 -26
BITMAP 
06
08
10
10
10
10
FE
10
10
10
10
10
10
10
10
10
10
ENDCHAR
STARTCHAR char67
ENCODING 103
SWIDTH 500 0
DWIDTH 13 0
BBX 9 17 2 -5
VVECTOR 7 21
SWIDTH1 0 -1000
DWIDTH1 0 -26
BITMAP 
3C80
4280
8180
8080
8080
8080
8080
8080
8080
8180
4280
3C80
0080
0080
0080
4100
3E00
ENDCHAR
STARTCHAR char68
ENCODING 104
SWIDTH 500 0
DWIDTH 13 0
BBX 9 17 2 0
VVECTOR 7 21
SWIDTH1 0 -1000
DWIDTH1 0 -26
BITMAP 
8000
8000
8000
8000
8000
9E00
A100
C080
8080
8080
8080
8080
8080
8080
8080
8080
8080
ENDCHAR
STARTCHAR char69
ENCODING 105
SWIDTH 346 0
DWIDTH 9 0
BBX 1 17 4 0
VVECTOR 5 21
SWIDTH1 0 -1000
DWIDTH1 0 -26
BITMAP 
80
80
00
00
00
80
80
80
80
80
80
80
80
80
80
80
80
ENDCHAR
STARTCHAR char6A
ENCODING 106
SWIDTH 346 0
DWIDTH 9 0
BBX 5 22 0 -5
VVECTOR 3 21
SWIDTH1 0 -1000
DWIDTH1 0 -26
BITMAP 
08
08
00
00
00
08
08
08
08
08
08
08
08
08
08
08
08
08
08
08
10
E0
ENDCHAR
STARTCHAR char6B
ENCODING 107
SWIDTH 500 0
DWIDTH 13 0
BBX 9 17 2 0
VVECTOR 7 21
SWIDTH1 0 -1000
DWIDTH1 0 -26
BITMAP 
8000
8000
8000
8000
8000
8080
8100
8200
8400
8800
9000
B000
C800
8400
8200
8100
8080
ENDCHAR
STARTCHAR char6C
ENCODING 108
SWIDTH 346 0
DWIDTH 9 0
BBX 1 17 4 0
VVECTOR 5 21
SWIDTH1 0 -1000
DWIDTH1 0 -26
BITMAP 
80
80
80
80
80
80
80
80
80
80
80
80
80
80
80
80
80
ENDCHAR
STARTCHAR char6D
ENCODING 109
SWIDTH 923 0
DWIDTH 24 0
BBX 19 12 2 0
VVECTOR 12 21
SWIDTH1 0 -1000
DWIDTH1 0 -26
BITMAP 
9F0F80
A09040
C06020
804020
804020
804020
804020
804020
804020
804020
804020
804020
ENDCHAR
STARTCHAR char6E
ENCODING 110
SWIDTH 500 0
DWIDTH 13 0
BBX 9 12 2 0
VVECTOR 7 21
SWIDTH1 0 -1000
DWIDTH1 0 -26
BITMAP 
9E00
A100
C080
8080
8080
8080
8080
8080
8080
8080
8080
8080
ENDCHAR
STARTCHAR char6F
ENCODING 111
SWIDTH 538 0
DWIDTH 14 0
BBX 10 12 2 0
VVECTOR 7 21
SWIDTH1 0 -1000
DWIDTH1 0 -26
BITMAP 
3F00
4080
8040
8040
8040
8040
8040
8040
8040
8040
4080
3F00
ENDCHAR
STARTCHAR char70
ENCODING 112
SWIDTH 500 0
DWIDTH 13 0
BBX 9 17 2 -5
VVECTOR 7 21
SWIDTH1 0 -1000
DWIDTH1 0 -26
BITMAP 
9E00
A100
C080
8080
8080
8080
8080
8080
8080
C080
A100
9E00
8000
8000
8000
8000
8000
ENDCHAR
STARTCHAR char71
ENCODING 113
SWIDTH 500 0
DWIDTH 13 0
BBX 9 17 2 -5
VVECTOR 7 21
SWIDTH1 0 -1000
DWIDTH1 0 -26
BITMAP 
3C80
4280
8180
8080
8080
8080
8080
8080
8080
8180
4280
3C80
0080
0080
0080
0080
0080
ENDCHAR
STARTCHAR char72
ENCODING 114
SWIDTH 462 0
DWIDTH 12 0
BBX 8 12 2 0
VVECTOR 6 21
SWIDTH1 0 -1000
DWIDTH1 0 -26
BITMAP 
8F
90
A0
C0
80
80
80
80
80
80
80
80
ENDCHAR
STARTCHAR char73
ENCODING 115
SWIDTH 423 0
DWIDTH 11 0
BBX 8 12 1 0
VVECTOR 5 21
SWIDTH1 0 -1000
DWIDTH1 0 -26
BITMAP 
3C
42
81
80
40
30
0C
02
01
81
42
3C
ENDCHAR
STARTCHAR char74
ENCODING 116
SWIDTH 462 0
DWIDTH 12 0
BBX 8 16 2 0
VVECTOR 6 21
SWIDTH1 0 -1000
DWIDTH1 0 -26
BITMAP 
10
10
10
10
FF
10
10
10
10
10
10
10
10
10
08
07
ENDCHAR
STARTCHAR char75
ENCODING 117
SWIDTH 500 0
DWIDTH 13 0
BBX 9 12 2 0
VVECTOR 7 21
SWIDTH1 0 -1000
DWIDTH1 0 -26
BITMAP 
8080
8080
8080
8080
8080
8080
8080
8080
8080
8180
4280
3C80
ENDCHAR
STARTCHAR char76
ENCODING 118
SWIDTH 500 0
DWIDTH 13 0
BBX 11 12 1 0
VVECTOR 7 21
SWIDTH1 0 -1000
DWIDTH1 0 -26
BITMAP 
8020
8020
4040
4040
2080
2080
1100
1100
0A00
0A00
0400
0400
ENDCHAR
STARTCHAR char77
ENCODING 119
SWIDTH 769 0
DWIDTH 20 0
BBX 17 12 1 0
VVECTOR 10 21
SWIDTH1 0 -1000
DWIDTH1 0 -26
BITMAP 
800080
800080
808080
408100
414100
214200
222200
222200
141400
141400
080800
080800
ENDCHAR
STARTCHAR char78
ENCODING 120
SWIDTH 500 0
DWIDTH 13 0
BBX 11 12 1 0
VVECTOR 7 21
SWIDTH1 0 -1000
DWIDTH1 0 -26
BITMAP 
8020
4040
2080
1100
0A00
0400
0400
0A00
1100
2080
4040
8020
ENDCHAR
STARTCHAR char79
ENCODING 121
SWIDTH 500 0
DWIDTH 13 0
BBX 11 17 1 -5
VVECTOR 7 21
SWIDTH1 0 -1000
DWIDTH1 0 -26
BITMAP 
8020
8020
4040
4040
2080
2080
1100
1100
0A00
0A00
0400
0400
0400
0800
0800
1000
E000
ENDCHAR
STARTCHAR char7A
ENCODING 122
SWIDTH 500 0
DWIDTH 13 0
BBX 10 12 1 0
VVECTOR 6 21
SWIDTH1 0 -1000
DWIDTH1 0 -26
BITMAP 
FFC0
0040
0080
0100
0200
0400
0800
1000
2000
4000
8000
FFC0
ENDCHAR
STARTCHAR char7B
ENCODING 123
SWIDTH 346 0
DWIDTH 9 0
BBX 7 24 0 -4
VVECTOR 4 21
SWIDTH1 0 -1000
DWIDTH1 0 -26
BITMAP 
0E
10
10
10
10
10
10
10
10
10
10
E0
10
10
10
10
10
10
10
10
10
10
10
0E
ENDCHAR
STARTCHAR char7C
ENCODING 124
SWIDTH 308 0
DWIDTH 8 0
BBX 1 24 3 -4
VVECTOR 4 21
SWIDTH1 0 -1000
DWIDTH1 0 -26
BITMAP 
80
80
80
80
80
80
80
80
80
80
80
80
80
80
80
80
80
80
80
80
80
80
80
80
ENDCHAR
STARTCHAR char7D
ENCODING 125
SWIDTH 346 0
DWIDTH 9 0
BBX 7 24 2 -4
VVECTOR 6 21
SWIDTH1 0 -1000
DWIDTH1 0 -26
BITMAP 
E0
10
10
10
10
10
10
10
10
10
10
0E
10
10
10
10
10
10
10
10
10
10
10
E0
ENDCHAR
STARTCHAR char7E
ENCODING 126
SWIDTH 692 0
DWIDTH 18 0
BBX 9 3 4 18
VVECTOR 9 21
SWIDTH1 0 -1000
DWIDTH1 0 -26
BITMAP 
7080
8880
8700
ENDCHAR
STARTCHAR char80
ENCODING 128
SWIDTH 692 0
DWIDTH 18 0
BBX 16 21 1 0
VVECTOR 9 21
SWIDTH1 0 -1000
DWIDTH1 0 -26
BITMAP 
0C30
0000
0000
0000
0180
0240
0240
0420
0420
0810
0810
1008
1008
1008
2FF4
2004
4002
4002
8001
8001
8001
ENDCHAR
STARTCHAR char81
ENCODING 129
SWIDTH 692 0
DWIDTH 18 0
BBX 16 21 1 0
VVECTOR 9 21
SWIDTH1 0 -1000
DWIDTH1 0 -26
BITMAP 
03C0
0420
0420
0420
03C0
0240
0240
0420
0420
0810
0810
1008
1008
1008
2FF4
2004
4002
4002
8001
8001
8001
ENDCHAR
STARTCHAR char82
ENCODING 130
SWIDTH 731 0
DWIDTH 19 0
BBX 15 22 2 -5
VVECTOR 10 21
SWIDTH1 0 -1000
DWIDTH1 0 -26
BITMAP 
1FF0
2008
4004
8002
8002
8000
8000
8000
8000
8000
8000
8000
8002
8002
4004
2008
1FF0
0300
0080
0080
0080
0700
ENDCHAR
STARTCHAR char83
ENCODING 131
SWIDTH 577 0
DWIDTH 15 0
BBX 11 21 2 0
VVECTOR 8 21
SWIDTH1 0 -1000
DWIDTH1 0 -26
BITMAP 
0180
0300
0400
0000
FFE0
8000
8000
8000
8000
8000
8000
FFC0
8000
8000
8000
8000
8000
8000
8000
8000
FFE0
ENDCHAR
STARTCHAR char84
ENCODING 132
SWIDTH 731 0
DWIDTH 19 0
BBX 15 21 2 0
VVECTOR 10 21
SWIDTH1 0 -1000
DWIDTH1 0 -26
BITMAP 
1F08
21F0
0000
0000
8002
C002
A002
9002
8802
8402
8402
8202
8102
8082
8042
8042
8022
8012
800A
8006
8002
ENDCHAR
STARTCHAR char85
ENCODING 133
SWIDTH 769 0
DWIDTH 20 0
BBX 16 21 2 0
VVECTOR 10 21
SWIDTH1 0 -1000
DWIDTH1 0 -26
BITMAP 
1818
0000
0000
0000
1FF8
2004
4002
8001
8001
8001
8001
8001
8001
8001
8001
8001
8001
8001
4002
2004
1FF8
ENDCHAR
STARTCHAR char86
ENCODING 134
SWIDTH 692 0
DWIDTH 18 0
BBX 14 21 2 0
VVECTOR 9 21
SWIDTH1 0 -1000
DWIDTH1 0 -26
BITMAP 
3030
0000
0000
0000
8004
8004
8004
8004
8004
8004
8004
8004
8004
8004
8004
8004
8004
8004
4008
2010
1FE0
ENDCHAR
STARTCHAR char87
ENCODING 135
SWIDTH 500 0
DWIDTH 13 0
BBX 9 18 2 0
VVECTOR 7 21
SWIDTH1 0 -1000
DWIDTH1 0 -26
BITMAP 
0300
0600
0800
0000
0000
0000
3E00
4100
0080
0080
0080
3F80
4080
8080
8080
8180
4280
3C80
ENDCHAR
STARTCHAR char88
ENCODING 136
SWIDTH 500 0
DWIDTH 13 0
BBX 9 18 2 0
VVECTOR 7 21
SWIDTH1 0 -1000
DWIDTH1 0 -26
BITMAP 
3000
1800
0400
0000
0000
0000
3E00
4100
0080
0080
0080
3F80
4080
8080
8080
8180
4280
3C80
ENDCHAR
STARTCHAR char89
ENCODING 137
SWIDTH 500 0
DWIDTH 13 0
BBX 9 18 2 0
VVECTOR 7 21
SWIDTH1 0 -1000
DWIDTH1 0 -26
BITMAP 
0C00
1200
2100
0000
0000
0000
3E00
4100
0080
0080
0080
3F80
4080
8080
8080
8180
4280
3C80
ENDCHAR
STARTCHAR char8A
ENCODING 138
SWIDTH 500 0
DWIDTH 13 0
BBX 9 16 2 0
VVECTOR 7 21
SWIDTH1 0 -1000
DWIDTH1 0 -26
BITMAP 
6300
0000
0000
0000
3E00
4100
0080
0080
0080
3F80
4080
8080
8080
8180
4280
3C80
ENDCHAR
STARTCHAR char8B
ENCODING 139
SWIDTH 500 0
DWIDTH 13 0
BBX 9 17 2 0
VVECTOR 7 21
SWIDTH1 0 -1000
DWIDTH1 0 -26
BITMAP 
7880
8F00
0000
0000
0000
3E00
4100
0080
0080
0080
3F80
4080
8080
8080
8180
4280
3C80
ENDCHAR
STARTCHAR char8C
ENCODING 140
SWIDTH 500 0
DWIDTH 13 0
BBX 9 19 2 0
VVECTOR 7 21
SWIDTH1 0 -1000
DWIDTH1 0 -26
BITMAP 
1E00
2100
2100
1E00
0000
0000
0000
3E00
4100
0080
0080
0080
3F80
4080
8080
8080
8180
4280
3C80
ENDCHAR
STARTCHAR char8D
ENCODING 141
SWIDTH 500 0
DWIDTH 13 0
BBX 9 17 2 -5
VVECTOR 7 21
SWIDTH1 0 -1000
DWIDTH1 0 -26
BITMAP 
3E00
4100
8080
8080
8000
8000
8000
8000
8080
8080
4100
3E00
1800
0400
0400
0400
3800
ENDCHAR
STARTCHAR char8E
ENCODING 142
SWIDTH 500 0
DWIDTH 13 0
BBX 9 18 2 0
VVECTOR 7 21
SWIDTH1 0 -1000
DWIDTH1 0 -26
BITMAP 
0300
0600
0800
0000
0000
0000
3E00
4100
8080
8080
8080
FF80
8000
8000
8000
8000
4100
3E00
ENDCHAR
STARTCHAR char8F
ENCODING 143
SWIDTH 500 0
DWIDTH 13 0
BBX 9 18 2 0
VVECTOR 7 21
SWIDTH1 0 -1000
DWIDTH1 0 -26
BITMAP 
6000
3000
0800
0000
0000
0000
3E00
4100
8080
8080
8080
FF80
8000
8000
8000
8000
4080
3F00
ENDCHAR
STARTCHAR char90
ENCODING 144
SWIDTH 500 0
DWIDTH 13 0
BBX 9 18 2 0
VVECTOR 7 21
SWIDTH1 0 -1000
DWIDTH1 0 -26
BITMAP 
0800
1400
2200
0000
0000
0000
3E00
4100
8080
8080
8080
FF80
8000
8000
8000
8000
4080
3F00
ENDCHAR
STARTCHAR char91
ENCODING 145
SWIDTH 500 0
DWIDTH 13 0
BBX 9 16 2 0
VVECTOR 7 21
SWIDTH1 0 -1000
DWIDTH1 0 -26
BITMAP 
6300
0000
0000
0000
3E00
4100
8080
8080
8080
FF80
8000
8000
8000
8000
4080
3F00
ENDCHAR
STARTCHAR char92
ENCODING 146
SWIDTH 346 0
DWIDTH 9 0
BBX 4 18 4 0
VVECTOR 6 21
SWIDTH1 0 -1000
DWIDTH1 0 -26
BITMAP 
30
60
80
00
00
00
80
80
80
80
80
80
80
80
80
80
80
80
ENDCHAR
STARTCHAR char93
ENCODING 147
SWIDTH 346 0
DWIDTH 9 0
BBX 4 18 1 0
VVECTOR 3 21
SWIDTH1 0 -1000
DWIDTH1 0 -26
BITMAP 
C0
60
10
00
00
00
10
10
10
10
10
10
10
10
10
10
10
10
ENDCHAR
STARTCHAR char94
ENCODING 148
SWIDTH 346 0
DWIDTH 9 0
BBX 5 18 2 0
VVECTOR 5 21
SWIDTH1 0 -1000
DWIDTH1 0 -26
BITMAP 
20
50
88
00
00
00
20
20
20
20
20
20
20
20
20
20
20
20
ENDCHAR
STARTCHAR char95
ENCODING 149
SWIDTH 346 0
DWIDTH 9 0
BBX 7 16 1 0
VVECTOR 5 21
SWIDTH1 0 -1000
DWIDTH1 0 -26
BITMAP 
C6
00
00
00
10
10
10
10
10
10
10
10
10
10
10
10
ENDCHAR
STARTCHAR char96
ENCODING 150
SWIDTH 500 0
DWIDTH 13 0
BBX 9 17 2 0
VVECTOR 7 21
SWIDTH1 0 -1000
DWIDTH1 0 -26
BITMAP 
7880
8F00
0000
0000
0000
9E00
A100
C080
8080
8080
8080
8080
8080
8080
8080
8080
8080
ENDCHAR
STARTCHAR char97
ENCODING 151
SWIDTH 538 0
DWIDTH 14 0
BBX 10 18 2 0
VVECTOR 7 21
SWIDTH1 0 -1000
DWIDTH1 0 -26
BITMAP 
0180
0300
0400
0000
0000
0000
3F00
4080
8040
8040
8040
8040
8040
8040
8040
8040
4080
3F00
ENDCHAR
STARTCHAR char98
ENCODING 152
SWIDTH 538 0
DWIDTH 14 0
BBX 10 18 2 0
VVECTOR 7 21
SWIDTH1 0 -1000
DWIDTH1 0 -26
BITMAP 
3000
1800
0400
0000
0000
0000
3F00
4080
8040
8040
8040
8040
8040
8040
8040
8040
4080
3F00
ENDCHAR
STARTCHAR char99
ENCODING 153
SWIDTH 538 0
DWIDTH 14 0
BBX 10 18 2 0
VVECTOR 7 21
SWIDTH1 0 -1000
DWIDTH1 0 -26
BITMAP 
0C00
1200
2100
0000
0000
0000
3F00
4080
8040
8040
8040
8040
8040
8040
8040
8040
4080
3F00
ENDCHAR
STARTCHAR char9A
ENCODING 154
SWIDTH 538 0
DWIDTH 14 0
BBX 10 16 2 0
VVECTOR 7 21
SWIDTH1 0 -1000
DWIDTH1 0 -26
BITMAP 
6180
0000
0000
0000
3F00
4080
8040
8040
8040
8040
8040
8040
8040
8040
4080
3F00
ENDCHAR
STARTCHAR char9B
ENCODING 155
SWIDTH 538 0
DWIDTH 14 0
BBX 10 17 2 0
VVECTOR 7 21
SWIDTH1 0 -1000
DWIDTH1 0 -26
BITMAP 
7840
8780
0000
0000
0000
3F00
4080
8040
8040
8040
8040
8040
8040
8040
8040
4080
3F00
ENDCHAR
STARTCHAR char9C
ENCODING 156
SWIDTH 500 0
DWIDTH 13 0
BBX 9 18 2 0
VVECTOR 7 21
SWIDTH1 0 -1000
DWIDTH1 0 -26
BITMAP 
0300
0600
0800
0000
0000
0000
8080
8080
8080
8080
8080
8080
8080
8080
8080
8180
4280
3C80
ENDCHAR
STARTCHAR char9D
ENCODING 157
SWIDTH 500 0
DWIDTH 13 0
BBX 9 18 2 0
VVECTOR 7 21
SWIDTH1 0 -1000
DWIDTH1 0 -26
BITMAP 
6000
3000
0800
0000
0000
0000
8080
8080
8080
8080
8080
8080
8080
8080
8080
8180
4280
3C80
ENDCHAR
STARTCHAR char9E
ENCODING 158
SWIDTH 500 0
DWIDTH 13 0
BBX 9 18 2 0
VVECTOR 7 21
SWIDTH1 0 -1000
DWIDTH1 0 -26
BITMAP 
0800
1400
2200
0000
0000
0000
8080
8080
8080
8080
8080
8080
8080
8080
8080
8180
4280
3C80
ENDCHAR
STARTCHAR char9F
ENCODING 159
SWIDTH 500 0
DWIDTH 13 0
BBX 9 17 2 0
VVECTOR 7 21
SWIDTH1 0 -1000
DWIDTH1 0 -26
BITMAP 
6300
0000
0000
0000
0000
8080
8080
8080
8080
8080
8080
8080
8080
8080
8180
4280
3C80
ENDCHAR
STARTCHAR charA0
ENCODING 160
SWIDTH 577 0
DWIDTH 15 0
BBX 11 17 2 0
VVECTOR 8 21
SWIDTH1 0 -1000
DWIDTH1 0 -26
BITMAP 
0400
0400
0400
0400
FFE0
0400
0400
0400
0400
0400
0400
0400
0400
0400
0400
0400
0400
ENDCHAR
STARTCHAR charA1
ENCODING 161
SWIDTH 385 0
DWIDTH 10 0
BBX 6 6 2 11
VVECTOR 5 21
SWIDTH1 0 -1000
DWIDTH1 0 -26
BITMAP 
78
84
84
84
84
78
ENDCHAR
STARTCHAR charA2
ENCODING 162
SWIDTH 577 0
DWIDTH 15 0
BBX 9 16 3 1
VVECTOR 8 21
SWIDTH1 0 -1000
DWIDTH1 0 -26
BITMAP 
0800
0800
0800
3E00
4100
8080
8080
8000
8000
8080
8080
4100
3E00
0800
0800
0800
ENDCHAR
STARTCHAR charA3
ENCODING 163
SWIDTH 577 0
DWIDTH 15 0
BBX 13 17 1 0
VVECTOR 8 21
SWIDTH1 0 -1000
DWIDTH1 0 -26
BITMAP 
0780
0800
1000
1000
1000
1000
1000
FE00
1000
1000
1000
1000
1000
1000
1000
1008
7FE0
ENDCHAR
STARTCHAR charA4
ENCODING 164
SWIDTH 577 0
DWIDTH 15 0
BBX 9 17 3 0
VVECTOR 8 21
SWIDTH1 0 -1000
DWIDTH1 0 -26
BITMAP 
3C00
4200
4000
2000
5000
8800
8400
8200
4100
2080
1080
0880
0500
0200
0100
2100
1E00
ENDCHAR
STARTCHAR charA5
ENCODING 165
SWIDTH 346 0
DWIDTH 9 0
BBX 5 5 2 7
VVECTOR 5 21
SWIDTH1 0 -1000
DWIDTH1 0 -26
BITMAP 
F8
F8
F8
F8
F8
ENDCHAR
STARTCHAR charA6
ENCODING 166
SWIDTH 615 0
DWIDTH 16 0
BBX 13 17 2 0
VVECTOR 9 21
SWIDTH1 0 -1000
DWIDTH1 0 -26
BITMAP 
3878
4840
8840
8840
8840
8840
4840
3840
0840
0840
0840
0840
0840
0840
0840
0840
0840
ENDCHAR
STARTCHAR charA7
ENCODING 167
SWIDTH 615 0
DWIDTH 16 0
BBX 11 17 2 0
VVECTOR 8 21
SWIDTH1 0 -1000
DWIDTH1 0 -26
BITMAP 
3F80
4040
8020
8020
8020
8020
8040
8780
8040
8020
8020
8020
8020
8020
8020
8040
9F80
ENDCHAR
STARTCHAR charA8
ENCODING 168
SWIDTH 885 0
DWIDTH 23 0
BBX 17 15 3 1
VVECTOR 12 21
SWIDTH1 0 -1000
DWIDTH1 0 -26
BITMAP 
3FFE00
400100
800080
800080
87E080
841080
841080
87E080
841080
841080
841080
800080
800080
400100
3FFE00
ENDCHAR
STARTCHAR charA9
ENCODING 169
SWIDTH 885 0
DWIDTH 23 0
BBX 17 15 3 1
VVECTOR 12 21
SWIDTH1 0 -1000
DWIDTH1 0 -26
BITMAP 
3FFE00
400100
800080
800080
83E080
841080
840080
840080
840080
841080
83E080
800080
800080
400100
3FFE00
ENDCHAR
STARTCHAR charAA
ENCODING 170
SWIDTH 577 0
DWIDTH 15 0
BBX 12 4 1 13
VVECTOR 7 21
SWIDTH1 0 -1000
DWIDTH1 0 -26
BITMAP 
FA10
2330
22D0
2210
ENDCHAR
STARTCHAR charAB
ENCODING 171
SWIDTH 692 0
DWIDTH 18 0
BBX 4 3 8 18
VVECTOR 10 21
SWIDTH1 0 -1000
DWIDTH1 0 -26
BITMAP 
30
60
80
ENDCHAR
STARTCHAR charAC
ENCODING 172
SWIDTH 692 0
DWIDTH 18 0
BBX 9 1 4 20
VVECTOR 9 21
SWIDTH1 0 -1000
DWIDTH1 0 -26
BITMAP 
C180
ENDCHAR
STARTCHAR charAD
ENCODING 173
SWIDTH 885 0
DWIDTH 23 0
BBX 17 13 3 2
VVECTOR 12 21
SWIDTH1 0 -1000
DWIDTH1 0 -26
BITMAP 
004000
004000
004000
004000
FFFF80
008000
008000
008000
FFFF80
010000
010000
010000
010000
ENDCHAR
STARTCHAR charAE
ENCODING 174
SWIDTH 885 0
DWIDTH 23 0
BBX 20 17 1 0
VVECTOR 11 21
SWIDTH1 0 -1000
DWIDTH1 0 -26
BITMAP 
01FFF0
021000
021000
041000
041000
081000
081000
081000
101FE0
1FF000
201000
201000
201000
401000
401000
801000
801FF0
ENDCHAR
STARTCHAR charAF
ENCODING 175
SWIDTH 769 0
DWIDTH 20 0
BBX 16 17 2 0
VVECTOR 10 21
SWIDTH1 0 -1000
DWIDTH1 0 -26
BITMAP 
1FF8
2004
4006
8009
8011
8021
8041
8081
8101
8201
8401
8801
9001
A001
4002
2004
1FF8
ENDCHAR
STARTCHAR charB0
ENCODING 176
SWIDTH 885 0
DWIDTH 23 0
BBX 17 7 3 5
VVECTOR 12 21
SWIDTH1 0 -1000
DWIDTH1 0 -26
BITMAP 
3E1E00
412100
804080
808080
810080
424100
3C3E00
ENDCHAR
STARTCHAR charB1
ENCODING 177
SWIDTH 885 0
DWIDTH 23 0
BBX 17 14 3 0
VVECTOR 12 21
SWIDTH1 0 -1000
DWIDTH1 0 -26
BITMAP 
008000
008000
008000
008000
008000
FFFF80
008000
008000
008000
008000
008000
000000
000000
FFFF80
ENDCHAR
STARTCHAR charB2
ENCODING 178
SWIDTH 577 0
DWIDTH 15 0
BBX 11 16 2 0
VVECTOR 8 21
SWIDTH1 0 -1000
DWIDTH1 0 -26
BITMAP 
0100
0200
0400
0800
1000
2000
4000
2000
1000
0800
0400
0200
0100
0000
0000
FFE0
ENDCHAR
STARTCHAR charB3
ENCODING 179
SWIDTH 577 0
DWIDTH 15 0
BBX 11 16 2 0
VVECTOR 8 21
SWIDTH1 0 -1000
DWIDTH1 0 -26
BITMAP 
1000
0800
0400
0200
0100
0080
0040
0080
0100
0200
0400
0800
1000
0000
0000
FFE0
ENDCHAR
STARTCHAR charB4
ENCODING 180
SWIDTH 692 0
DWIDTH 18 0
BBX 13 17 2 0
VVECTOR 9 21
SWIDTH1 0 -1000
DWIDTH1 0 -26
BITMAP 
8008
4010
2020
1040
0880
0500
0200
7FF0
0200
0200
0200
7FF0
0200
0200
0200
0200
0200
ENDCHAR
STARTCHAR charB5
ENCODING 181
SWIDTH 577 0
DWIDTH 15 0
BBX 11 15 2 -3
VVECTOR 8 21
SWIDTH1 0 -1000
DWIDTH1 0 -26
BITMAP 
8080
8080
8080
8080
8080
8080
8080
8080
8080
8180
C280
BC60
8000
8000
8000
ENDCHAR
STARTCHAR charB6
ENCODING 182
SWIDTH 577 0
DWIDTH 15 0
BBX 10 17 2 0
VVECTOR 7 21
SWIDTH1 0 -1000
DWIDTH1 0 -26
BITMAP 
0F00
0080
0040
0040
0040
3F40
40C0
8040
8040
8040
8040
8040
8040
8040
8040
4080
3F00
ENDCHAR
STARTCHAR charB7
ENCODING 183
SWIDTH 885 0
DWIDTH 23 0
BBX 17 23 3 -3
VVECTOR 12 21
SWIDTH1 0 -1000
DWIDTH1 0 -26
BITMAP 
FFFE00
400100
200080
100000
080000
040000
020000
010000
008000
004000
002000
001000
002000
004000
008000
010000
020000
040000
080000
100000
200080
400100
FFFE00
ENDCHAR
STARTCHAR charB8
ENCODING 184
SWIDTH 885 0
DWIDTH 23 0
BBX 18 17 3 0
VVECTOR 12 21
SWIDTH1 0 -1000
DWIDTH1 0 -26
BITMAP 
FFFFC0
040800
040800
040800
040800
040800
040800
040800
040800
040800
040800
040800
040800
040800
040800
040800
040800
ENDCHAR
STARTCHAR charB9
ENCODING 185
SWIDTH 885 0
DWIDTH 23 0
BBX 16 12 3 0
VVECTOR 11 21
SWIDTH1 0 -1000
DWIDTH1 0 -26
BITMAP 
FFFF
0810
0810
0810
0810
0810
0810
0810
0810
0810
0810
0810
ENDCHAR
STARTCHAR charBA
ENCODING 186
SWIDTH 577 0
DWIDTH 15 0
BBX 11 24 2 -4
VVECTOR 8 21
SWIDTH1 0 -1000
DWIDTH1 0 -26
BITMAP 
01C0
0220
0400
0400
0400
0400
0400
0400
0400
0400
0400
0400
0400
0400
0400
0400
0400
0400
0400
0400
0400
0400
8800
7000
ENDCHAR
STARTCHAR charBB
ENCODING 187
SWIDTH 500 0
DWIDTH 13 0
BBX 9 15 2 0
VVECTOR 7 21
SWIDTH1 0 -1000
DWIDTH1 0 -26
BITMAP 
3E00
4100
0080
0080
3F80
4080
8080
8080
8180
4280
3C80
0000
0000
0000
FF80
ENDCHAR
STARTCHAR charBC
ENCODING 188
SWIDTH 538 0
DWIDTH 14 0
BBX 10 15 2 0
VVECTOR 7 21
SWIDTH1 0 -1000
DWIDTH1 0 -26
BITMAP 
3F00
4080
8040
8040
8040
8040
8040
8040
8040
4080
3F00
0000
0000
0000
FFC0
ENDCHAR
STARTCHAR charBD
ENCODING 189
SWIDTH 885 0
DWIDTH 23 0
BBX 16 18 3 0
VVECTOR 11 21
SWIDTH1 0 -1000
DWIDTH1 0 -26
BITMAP 
1FF8
2004
4002
8001
8001
8001
8001
8001
4002
4002
2004
2004
1008
1008
0810
0810
8421
7C3E
ENDCHAR
STARTCHAR charBE
ENCODING 190
SWIDTH 846 0
DWIDTH 22 0
BBX 17 12 2 0
VVECTOR 11 21
SWIDTH1 0 -1000
DWIDTH1 0 -26
BITMAP 
3E3E00
414100
008080
008080
008080
3F7F80
408000
808000
808000
808000
414100
3E3E00
ENDCHAR
STARTCHAR charBF
ENCODING 191
SWIDTH 538 0
DWIDTH 14 0
BBX 10 12 2 0
VVECTOR 7 21
SWIDTH1 0 -1000
DWIDTH1 0 -26
BITMAP 
3F00
4080
80C0
8140
8240
8440
8840
9040
A040
C040
4080
3F00
ENDCHAR
STARTCHAR charC0
ENCODING 192
SWIDTH 577 0
DWIDTH 15 0
BBX 9 17 3 0
VVECTOR 8 21
SWIDTH1 0 -1000
DWIDTH1 0 -26
BITMAP 
0800
0800
0000
0000
0800
0800
0800
1000
2000
4000
8000
8000
8000
8080
8080
4100
3E00
ENDCHAR
STARTCHAR charC1
ENCODING 193
SWIDTH 346 0
DWIDTH 9 0
BBX 1 17 4 0
VVECTOR 5 21
SWIDTH1 0 -1000
DWIDTH1 0 -26
BITMAP 
80
80
00
00
00
80
80
80
80
80
80
80
80
80
80
80
80
ENDCHAR
STARTCHAR charC2
ENCODING 194
SWIDTH 885 0
DWIDTH 23 0
BBX 17 4 3 5
VVECTOR 12 21
SWIDTH1 0 -1000
DWIDTH1 0 -26
BITMAP 
FFFF80
000080
000080
000080
ENDCHAR
STARTCHAR charC3
ENCODING 195
SWIDTH 885 0
DWIDTH 23 0
BBX 20 24 1 -4
VVECTOR 11 21
SWIDTH1 0 -1000
DWIDTH1 0 -26
BITMAP 
0001F0
000100
000100
000200
000200
000200
000400
000400
000800
000800
000800
001000
001000
002000
002000
002000
004000
004000
008000
F08000
088000
050000
030000
010000
ENDCHAR
STARTCHAR charC4
ENCODING 196
SWIDTH 577 0
DWIDTH 15 0
BBX 11 19 2 -2
VVECTOR 8 21
SWIDTH1 0 -1000
DWIDTH1 0 -26
BITMAP 
03C0
0420
0400
0400
0400
0400
3F80
0400
0400
0400
0400
0400
0400
0400
0400
0400
0400
8400
7800
ENDCHAR
STARTCHAR charC5
ENCODING 197
SWIDTH 885 0
DWIDTH 23 0
BBX 17 6 3 6
VVECTOR 12 21
SWIDTH1 0 -1000
DWIDTH1 0 -26
BITMAP 
7F8080
80FF00
000000
000000
7F8080
80FF00
ENDCHAR
STARTCHAR charC6
ENCODING 198
SWIDTH 885 0
DWIDTH 23 0
BBX 19 17 2 0
VVECTOR 12 21
SWIDTH1 0 -1000
DWIDTH1 0 -26
BITMAP 
00E000
013000
013000
021800
021800
040C00
040C00
080600
080600
100300
100300
200180
200180
4000C0
4000C0
800060
FFFFE0
ENDCHAR
STARTCHAR charC7
ENCODING 199
SWIDTH 692 0
DWIDTH 18 0
BBX 12 9 3 3
VVECTOR 9 21
SWIDTH1 0 -1000
DWIDTH1 0 -26
BITMAP 
0810
1020
2040
4080
8100
4080
2040
1020
0810
ENDCHAR
STARTCHAR charC8
ENCODING 200
SWIDTH 692 0
DWIDTH 18 0
BBX 12 9 3 3
VVECTOR 9 21
SWIDTH1 0 -1000
DWIDTH1 0 -26
BITMAP 
8100
4080
2040
1020
0810
1020
2040
4080
8100
ENDCHAR
STARTCHAR charC9
ENCODING 201
SWIDTH 885 0
DWIDTH 23 0
BBX 20 2 2 0
VVECTOR 12 21
SWIDTH1 0 -1000
DWIDTH1 0 -26
BITMAP 
C06030
C06030
ENDCHAR
STARTCHAR charCA
ENCODING 202
SWIDTH 385 0
DWIDTH 10 0
BBX 0 0 2 -5
VVECTOR 2 -5
SWIDTH1 0 0
DWIDTH1 0 0
BITMAP 
ENDCHAR
STARTCHAR charCB
ENCODING 203
SWIDTH 692 0
DWIDTH 18 0
BBX 16 21 1 0
VVECTOR 9 21
SWIDTH1 0 -1000
DWIDTH1 0 -26
BITMAP 
0600
0300
0080
0000
0000
0180
0240
0240
0420
0420
0810
0810
1008
1008
2FF4
2004
4002
4002
8001
8001
8001
ENDCHAR
STARTCHAR charCC
ENCODING 204
SWIDTH 692 0
DWIDTH 18 0
BBX 16 21 1 0
VVECTOR 9 21
SWIDTH1 0 -1000
DWIDTH1 0 -26
BITMAP 
0F08
10F0
0000
0000
0000
0180
0240
0240
0420
0420
0810
0810
1008
1008
2FF4
2004
4002
4002
8001
8001
8001
ENDCHAR
STARTCHAR charCD
ENCODING 205
SWIDTH 769 0
DWIDTH 20 0
BBX 16 21 2 0
VVECTOR 10 21
SWIDTH1 0 -1000
DWIDTH1 0 -26
BITMAP 
0F08
10F0
0000
0000
0000
1FF8
2004
4002
8001
8001
8001
8001
8001
8001
8001
8001
8001
8001
4002
2004
1FF8
ENDCHAR
STARTCHAR charCE
ENCODING 206
SWIDTH 1115 0
DWIDTH 29 0
BBX 25 17 2 0
VVECTOR 15 21
SWIDTH1 0 -1000
DWIDTH1 0 -26
BITMAP 
1FF3FF80
200A0000
40060000
80020000
80020000
80020000
80020000
8003FF00
80020000
80020000
80020000
80020000
80020000
80020000
40060000
200A0000
1FF3FF80
ENDCHAR
STARTCHAR charCF
ENCODING 207
SWIDTH 885 0
DWIDTH 23 0
BBX 19 12 2 0
VVECTOR 12 21
SWIDTH1 0 -1000
DWIDTH1 0 -26
BITMAP 
3F1F80
40A040
804020
804020
804020
807FE0
804000
804000
804000
804000
40A040
3F1F80
ENDCHAR
STARTCHAR charD0
ENCODING 208
SWIDTH 500 0
DWIDTH 13 0
BBX 6 1 3 8
VVECTOR 6 21
SWIDTH1 0 -1000
DWIDTH1 0 -26
BITMAP 
FC
ENDCHAR
STARTCHAR charD1
ENCODING 209
SWIDTH 885 0
DWIDTH 23 0
BBX 23 1 0 8
VVECTOR 12 21
SWIDTH1 0 -1000
DWIDTH1 0 -26
BITMAP 
FFFFFE
ENDCHAR
STARTCHAR charD2
ENCODING 210
SWIDTH 615 0
DWIDTH 16 0
BBX 10 5 3 12
VVECTOR 8 21
SWIDTH1 0 -1000
DWIDTH1 0 -26
BITMAP 
30C0
6180
C300
C300
C300
ENDCHAR
STARTCHAR charD3
ENCODING 211
SWIDTH 615 0
DWIDTH 16 0
BBX 10 5 3 12
VVECTOR 8 21
SWIDTH1 0 -1000
DWIDTH1 0 -26
BITMAP 
30C0
30C0
30C0
6180
C300
ENDCHAR
STARTCHAR charD4
ENCODING 212
SWIDTH 385 0
DWIDTH 10 0
BBX 4 5 3 12
VVECTOR 5 21
SWIDTH1 0 -1000
DWIDTH1 0 -26
BITMAP 
30
60
C0
C0
C0
ENDCHAR
STARTCHAR charD5
ENCODING 213
SWIDTH 385 0
DWIDTH 10 0
BBX 4 5 3 12
VVECTOR 5 21
SWIDTH1 0 -1000
DWIDTH1 0 -26
BITMAP 
30
30
30
60
C0
ENDCHAR
STARTCHAR charD6
ENCODING 214
SWIDTH 885 0
DWIDTH 23 0
BBX 16 13 3 2
VVECTOR 11 21
SWIDTH1 0 -1000
DWIDTH1 0 -26
BITMAP 
0180
0180
0000
0000
0000
0000
FFFF
0000
0000
0000
0000
0180
0180
ENDCHAR
STARTCHAR charD7
ENCODING 215
SWIDTH 885 0
DWIDTH 23 0
BBX 15 15 4 1
VVECTOR 12 21
SWIDTH1 0 -1000
DWIDTH1 0 -26
BITMAP 
0100
0280
0440
0820
1010
2008
4004
8002
4004
2008
1010
0820
0440
0280
0100
ENDCHAR
STARTCHAR charD8
ENCODING 216
SWIDTH 500 0
DWIDTH 13 0
BBX 11 21 1 -5
VVECTOR 7 21
SWIDTH1 0 -1000
DWIDTH1 0 -26
BITMAP 
60C0
0000
0000
0000
8020
8020
4040
4040
2080
2080
1100
1100
0A00
0A00
0400
0400
0800
0800
0800
1000
E000
ENDCHAR
STARTCHAR missing
ENCODING -1
SWIDTH 500 0
DWIDTH 13 0
BBX 11 20 1 -2
VVECTOR 7 21
SWIDTH1 0 -1000
DWIDTH1 0 -26
BITMAP 
FFE0
FFE0
80E0
8060
8020
F820
FC20
FC20
F820
F060
E0E0
E1E0
E1E0
E1E0
FFE0
FFE0
E1E0
E1E0
E1E0
FFE0
ENDCHAR
ENDFONT
